<svg width="16" height="16" viewBox="0 0 16 16" fill="none" xmlns="http://www.w3.org/2000/svg">
<path d="M10.4 4.80005V3.20005C10.4 1.87505 9.325 0.800049 8 0.800049H2.4C1.075 0.800049 0 1.87505 0 3.20005V12.8C0 14.125 1.075 15.2 2.4 15.2H8C9.325 15.2 10.4 14.125 10.4 12.8V11.2C10.4 10.7594 10.0406 10.4 9.6 10.4C9.15938 10.4 8.8 10.7594 8.8 11.2V12.8C8.8 13.2407 8.44063 13.6 8 13.6H2.4C1.95938 13.6 1.6 13.2407 1.6 12.8V3.20005C1.6 2.75942 1.95938 2.40005 2.4 2.40005H8C8.44063 2.40005 8.8 2.75942 8.8 3.20005V4.80005C8.8 5.24067 9.15938 5.60005 9.6 5.60005C10.0406 5.60005 10.4 5.24067 10.4 4.80005Z" fill="white"/>
<path d="M4 8.80005H15.2C15.525 8.80005 15.8156 8.6063 15.9406 8.3063C16.0656 8.0063 15.9969 7.66255 15.7688 7.43442L13.3688 5.03442C13.0563 4.72192 12.55 4.72192 12.2375 5.03442C11.925 5.34692 11.925 5.85317 12.2375 6.16567L13.2719 7.20005H4.00313C3.56251 7.20005 3.20313 7.55942 3.20313 8.00005C3.2 8.44067 3.55938 8.80005 4 8.80005ZM13.3656 10.9657L15.7656 8.56567C16.0781 8.25317 16.0781 7.74692 15.7656 7.43442C15.4531 7.12192 14.9469 7.12192 14.6344 7.43442L12.2344 9.83442C11.9219 10.1469 11.9219 10.6532 12.2344 10.9657C12.5469 11.2782 13.0531 11.2782 13.3656 10.9657Z" fill="white"/>
</svg>
