<svg width="20" height="22" viewBox="0 0 20 22" fill="none" xmlns="http://www.w3.org/2000/svg">
<g clip-path="url(#clip0_10_1006)">
<path d="M9.98101 8.75176C10.4976 8.75176 11.0092 8.65 11.4865 8.45229C11.9638 8.25459 12.3975 7.9648 12.7628 7.59949C13.1282 7.23417 13.4179 6.80048 13.6157 6.32317C13.8134 5.84586 13.9151 5.33429 13.9151 4.81765C13.9151 4.30102 13.8134 3.78944 13.6157 3.31213C13.4179 2.83483 13.1282 2.40113 12.7628 2.03582C12.3975 1.6705 11.9638 1.38072 11.4865 1.18301C11.0092 0.985304 10.4976 0.883545 9.98101 0.883545C8.93762 0.883545 7.93697 1.29803 7.19918 2.03582C6.46139 2.77361 6.0469 3.77426 6.0469 4.81765C6.0469 5.86104 6.46139 6.8617 7.19918 7.59949C7.93697 8.33728 8.93762 8.75176 9.98101 8.75176ZM1.55078 20.4417V21.1161H18.4112V20.4417C18.4112 17.9239 18.4112 16.6649 17.9212 15.7028C17.4901 14.8568 16.8023 14.169 15.9564 13.738C14.9942 13.2479 13.7353 13.2479 11.2174 13.2479H8.74458C6.22675 13.2479 4.96783 13.2479 4.00566 13.738C3.1597 14.169 2.47191 14.8568 2.04086 15.7028C1.55078 16.6649 1.55078 17.9239 1.55078 20.4417Z" stroke="#6A67DC" stroke-width="1.5" stroke-linecap="round" stroke-linejoin="round"/>
</g>
<defs>
<clipPath id="clip0_10_1006">
<rect width="20" height="22" fill="white"/>
</clipPath>
</defs>
</svg>
