<svg width="17" height="18" viewBox="0 0 17 18" fill="none" xmlns="http://www.w3.org/2000/svg">
<path d="M16.7201 15.8848L12.9868 12.1499C14.1062 10.6913 14.6288 8.86142 14.4486 7.03161C14.2684 5.20181 13.399 3.50904 12.0166 2.29671C10.6343 1.08437 8.84252 0.443248 7.00484 0.503391C5.16717 0.563533 3.42118 1.32044 2.12105 2.62057C0.820927 3.92069 0.0640216 5.66668 0.00387884 7.50436C-0.0562639 9.34203 0.58486 11.1338 1.79719 12.5161C3.00953 13.8985 4.70229 14.7679 6.5321 14.9481C8.36191 15.1283 10.1917 14.6057 11.6504 13.4863L15.3868 17.2235C15.4746 17.3113 15.5787 17.3809 15.6934 17.4284C15.808 17.4759 15.9309 17.5003 16.055 17.5003C16.1791 17.5003 16.302 17.4759 16.4167 17.4284C16.5313 17.3809 16.6355 17.3113 16.7232 17.2235C16.811 17.1358 16.8806 17.0316 16.9281 16.9169C16.9756 16.8023 17 16.6794 17 16.5553C17 16.4312 16.9756 16.3083 16.9281 16.1937C16.8806 16.079 16.811 15.9749 16.7232 15.8871L16.7201 15.8848ZM1.90254 7.74766C1.90254 6.6904 2.21606 5.65688 2.80344 4.7778C3.39082 3.89872 4.22569 3.21356 5.20247 2.80896C6.17925 2.40437 7.25408 2.29851 8.29102 2.50477C9.32796 2.71103 10.2805 3.22015 11.0281 3.96775C11.7757 4.71534 12.2848 5.66784 12.491 6.70478C12.6973 7.74173 12.5914 8.81655 12.1868 9.79333C11.7822 10.7701 11.0971 11.605 10.218 12.1924C9.33892 12.7797 8.3054 13.0933 7.24814 13.0933C5.83085 13.0918 4.47202 12.5281 3.46984 11.526C2.46766 10.5238 1.904 9.16495 1.90254 7.74766Z" fill="#747FA0"/>
</svg>
